<svg xmlns="http://www.w3.org/2000/svg" viewBox="0 0 64 80" x="0px" y="0px"><g><path d="M50,6.5h-.5V3a.48.48,0,0,0-.17-.37.5.5,0,0,0-.39-.13l-36,4h0a.29.29,0,0,0-.13,0,.41.41,0,0,0-.13.1.45.45,0,0,0-.1.14.09.09,0,0,0,0,0,.4.4,0,0,0,0,.15V60A1.5,1.5,0,0,0,14,61.5H50A1.5,1.5,0,0,0,51.5,60V8A1.5,1.5,0,0,0,50,6.5ZM24.42,24.14a.7.7,0,0,0,.7-.7V13.7a.7.7,0,0,1,1.39,0v9.74a.7.7,0,1,0,1.39,0V13.7a.7.7,0,0,1,1.4,0V26.22a3.48,3.48,0,0,1-3.48,3.48l.69,21.56a2.09,2.09,0,1,1-4.17,0L23,29.7a3.48,3.48,0,0,1-3.48-3.48V13.7a.7.7,0,0,1,.7-.7.69.69,0,0,1,.69.7v9.74a.7.7,0,0,0,1.4,0V13.7a.7.7,0,0,1,1.39,0v9.74A.69.69,0,0,0,24.42,24.14ZM19,55.5H45a.5.5,0,0,1,0,1H19a.5.5,0,0,1,0-1ZM33.47,22.74C33.47,18,36,13,39.74,13S46,18,46,22.74c0,3.88-1.73,6.31-4.88,6.85l.7,21.67a2.09,2.09,0,1,1-4.17,0l.69-21.71C35.2,29.05,33.47,26.62,33.47,22.74Zm15-19.18V6.5H22Z"/></g><text x="0" y="79" fill="#000000" font-size="5px" font-weight="bold" font-family="'Helvetica Neue', Helvetica, Arial-Unicode, Arial, Sans-serif">Created by bastian vieri</text><text x="0" y="84" fill="#000000" font-size="5px" font-weight="bold" font-family="'Helvetica Neue', Helvetica, Arial-Unicode, Arial, Sans-serif">from the Noun Project</text></svg>