<svg xmlns="http://www.w3.org/2000/svg" viewBox="0 0 64 80" x="0px" y="0px"><g><path d="M41.44,33.64A5.43,5.43,0,0,0,45.33,32L58.06,19.3a1.44,1.44,0,0,0,.44-1.05,1.46,1.46,0,0,0-.44-1.06,1.49,1.49,0,0,0-2.12,0L46,27.09a.51.51,0,0,1-.71,0,.53.53,0,0,1,0-.72l9.9-9.9a1.44,1.44,0,0,0,.44-1,1.47,1.47,0,0,0-.45-1.07,1.54,1.54,0,0,0-2.11,0l-9.9,9.9a.51.51,0,0,1-.71,0,.51.51,0,0,1-.14-.36.54.54,0,0,1,.14-.36l9.9-9.9a1.48,1.48,0,0,0,0-2.1,1.53,1.53,0,0,0-2.12,0l-9.9,9.9a.5.5,0,0,1-.86-.36.53.53,0,0,1,.14-.36l9.91-9.89A1.5,1.5,0,0,0,47.46,8.7L34.73,21.43a5.5,5.5,0,0,0-.35,7.39L32.16,30.9l-2.38-2.24c2.52-3.87,1.71-8.18-2.31-12.18-4.92-4.94-12.81-7.69-17-3.54s-1.39,12,3.54,17c4,4,8.31,4.82,12.18,2.3l2.12,2.26L12.1,49.71a3.32,3.32,0,0,0-1,3.3,3.8,3.8,0,0,0,2.62,2.62,3.69,3.69,0,0,0,.86.11,3.41,3.41,0,0,0,2.44-1.09L32.16,38.54,47.27,54.65v0a3.41,3.41,0,0,0,2.44,1.07,3.61,3.61,0,0,0,2.51-1.08,3.39,3.39,0,0,0,0-5L36,34.48l2-2.1A5.39,5.39,0,0,0,41.44,33.64Zm-10,4.17L16.34,54a2.37,2.37,0,0,1-2.33.7,2.78,2.78,0,0,1-1.91-1.91,2.36,2.36,0,0,1,.69-2.32L29,35.2l1.13,1.21Zm20,12.6A2.5,2.5,0,0,1,48,54L32.1,37l-2.67-2.86,0,0-2.62-2.79-.12-.12a.49.49,0,0,0-.64-.06C22.5,33.64,18.5,33,14.75,29.21c-4.61-4.61-7.13-12-3.54-15.56s11-1.08,15.56,3.53c3.75,3.75,4.44,7.75,1.95,11.26a.5.5,0,0,0,.06.65l3,2.83s0,0,0,0l3.11,2.93,0,0Zm-14-19.07-2.29,2.45-2.36-2.21,2.53-2.36a.52.52,0,0,0,.16-.36.48.48,0,0,0-.15-.36,4.53,4.53,0,0,1,0-6.37L48.16,9.4a.55.55,0,0,1,.71,0,.53.53,0,0,1,0,.72L39,20a1.5,1.5,0,0,0-.44,1.06A1.44,1.44,0,0,0,39,22.13a1.53,1.53,0,0,0,2.12,0l9.9-9.9a.5.5,0,0,1,.71.71l-9.9,9.9A1.5,1.5,0,0,0,43.91,25l9.89-9.89a.54.54,0,0,1,.73,0,.52.52,0,0,1,.14.36.52.52,0,0,1-.14.35l-9.9,9.9a1.5,1.5,0,0,0,0,2.12,1.48,1.48,0,0,0,2.11,0l9.9-9.9a.52.52,0,0,1,.72,0,.48.48,0,0,1,.14.35.52.52,0,0,1-.14.35L44.63,31.33a4.51,4.51,0,0,1-3.19,1.31,4.43,4.43,0,0,1-3.17-1.31.55.55,0,0,0-.37-.15A.52.52,0,0,0,37.54,31.34Z"/></g><text x="0" y="79" fill="#000000" font-size="5px" font-weight="bold" font-family="'Helvetica Neue', Helvetica, Arial-Unicode, Arial, Sans-serif">Created by bastian vieri</text><text x="0" y="84" fill="#000000" font-size="5px" font-weight="bold" font-family="'Helvetica Neue', Helvetica, Arial-Unicode, Arial, Sans-serif">from the Noun Project</text></svg>