<svg xmlns="http://www.w3.org/2000/svg" xmlns:xlink="http://www.w3.org/1999/xlink" version="1.1" x="0px" y="0px" viewBox="0 0 100 125" enable-background="new 0 0 100 100" xml:space="preserve"><path d="M34.2011719,70.0654297c-0.0361328-0.9941406,0.7402344-1.828125,1.7338867-1.8642578l27.6665039-1  c1.0253906-0.0517578,1.828125,0.7402344,1.8642578,1.7333984c0.0361328,0.9941406-0.7402344,1.828125-1.7333984,1.8642578  l-27.6674805,1c-0.0219727,0.0009766-0.0439453,0.0009766-0.065918,0.0009766  C35.034668,71.7998047,34.2363281,71.0361328,34.2011719,70.0654297z M76.4667969,14v66  c0,0.9658203-0.7626953,1.7597656-1.7275391,1.7988281l-3.2724609,0.1317749V86c0,0.5048828-0.2119141,0.9873047-0.5849609,1.328125  c-0.3330078,0.3046875-0.7675781,0.4716797-1.2148438,0.4716797c-0.0537109,0-0.1064453-0.0019531-0.1601562-0.0068359  l-44.6674805-4C24.5117798,83.7470703,23.2001953,83.5234985,23.2001953,82V16c0-1.3646851,1.1409912-1.7983398,1.7275391-1.7983398  l49.6669922-2c0.4892578-0.0141602,0.9658203,0.1606445,1.3193359,0.5C76.2675781,13.0415039,76.4667969,13.5102539,76.4667969,14z   M67.8671875,82.0755615l-15.0644531,0.6066284L67.8671875,84.03125V82.0755615z M72.8671875,15.8740234l-46.0673828,1.8549805  v0.1958008v62.2011719l46.0673828-1.8544922V15.8740234z M39.3633995,36.2423363  c-1.4943771-3.4172592-1.9872665-6.9300766-1.9941101-8.0760365c-0.010952-1.8347492,3.9341698-2.7888622,11.7257919-2.8353825  s11.7478561,0.8604164,11.7588081,2.6951656c0.0068398,1.1457081-0.4439468,4.663023-1.8967209,8.0972462  c-0.0617752,0.146019-0.1277924,0.2913704-0.1932373,0.4369087c-1.5735092,3.4993629-4.2196198,6.7976494-8.522583,7.2812881  l0.0799789,13.3956223c0.003418,0.5724754-0.4575577,1.0384827-1.0295296,1.0418968  c-0.5719681,0.0034142-1.0384789-0.4570541-1.0418968-1.0295296l-0.0799789-13.3956223  c-4.3112106-0.432457-6.9971771-3.7029572-8.6120567-7.1858101C39.4920959,36.5262985,39.4256325,36.3846474,39.3633995,36.2423363z   M57.5808754,28.0456257c-1.5819511-0.3390083-4.442337-0.6673489-8.4734268-0.64328  c-4.0305862,0.0240631-6.8868484,0.3865356-8.4651413,0.7444134c0.0001907,0.000061,0.0004425,0.0000591,0.0006332,0.0001221  c1.5825195,0.339447,4.4427185,0.6677246,8.4727974,0.6436634c4.0305824-0.024065,6.8866577-0.3864727,8.4645042-0.7447891  C57.5804329,28.0456905,57.5806847,28.0456905,57.5808754,28.0456257z M39.6632233,30.0459595  c0.2009239,1.1466331,0.5544968,2.6397972,1.1138573,4.1773796c2.0508614-0.9260521,5.8070564-1.12397,8.3642921-1.1392365  c2.5571709-0.0152664,6.3155212,0.137722,8.3774872,1.0391502c0.5408325-1.5440826,0.8765526-3.0413017,1.0637054-4.1902542  c-1.9311676,0.591423-5.0880814,0.9029026-9.4544601,0.9289722S41.6013145,30.6142788,39.6632233,30.0459595z   M49.1620255,36.5437279c3.3382568-0.019928,5.6887589-0.3864632,6.9358444-0.7357864  c-1.2511673-0.3339043-3.6058769-0.6723442-6.9441299-0.6524124c-3.3382568,0.0199318-5.6887589,0.3864632-6.9348335,0.7352791  C43.4690628,36.2252197,45.8237724,36.5636597,49.1620255,36.5437279z M47.6648483,56.0776749  c-0.0827866-0.5669441-0.607563-0.9603081-1.1749954-0.8749924c-1.6932449,0.2478065-5.6301689,1.0511589-5.6176186,3.1529312  c0.0154228,2.5832138,5.3118896,3.240406,8.4392586,3.2217331c3.1268616-0.0186691,8.4156113-0.7390594,8.4001846-3.3222733  c-0.0128326-2.1493111-3.5845375-2.8582687-5.7125359-3.0883179c-0.5652924-0.0643921-1.0796928,0.3483238-1.1415367,0.9171448  c-0.0613365,0.5688133,0.3493385,1.0801926,0.9181557,1.1415291c2.2059402,0.2396965,3.377182,0.7404671,3.7653694,1.0426025  c-0.5567169,0.4402809-2.6731415,1.2165794-6.2420044,1.2378883c-3.4788437,0.020771-5.5859566-0.6918755-6.2106285-1.1301613  c0.4780045-0.324501,1.7382851-0.835743,3.7018623-1.1236C47.3562889,57.1688766,47.7476273,56.6436081,47.6648483,56.0776749z"/><text x="0" y="115" fill="#000000" font-size="5px" font-weight="bold" font-family="'Helvetica Neue', Helvetica, Arial-Unicode, Arial, Sans-serif">Created by Mr. Minuvi</text><text x="0" y="120" fill="#000000" font-size="5px" font-weight="bold" font-family="'Helvetica Neue', Helvetica, Arial-Unicode, Arial, Sans-serif">from the Noun Project</text></svg>