<svg xmlns="http://www.w3.org/2000/svg" data-name="Layer 1" viewBox="0 0 64 80" x="0px" y="0px"><title>Restaurant</title><path d="M50.93.68V4a2.46,2.46,0,0,1,1.69,2.33V57.62a2.46,2.46,0,0,1-2.45,2.45H13.84a2.46,2.46,0,0,1-2.45-2.45V6.38a2.46,2.46,0,0,1,2.45-2.45H37.7V.63H13.84A5.76,5.76,0,0,0,8.09,6.38V57.62a5.76,5.76,0,0,0,5.75,5.75H50.16a5.76,5.76,0,0,0,5.75-5.75V6.38A5.76,5.76,0,0,0,50.93.68Z"/><path d="M48.32.63V14.81a.91.91,0,0,1-1.29.83l-2.34-1.06a.91.91,0,0,0-.75,0l-2.34,1.06a.91.91,0,0,1-1.29-.83V.63Z"/><path d="M17,35.23h6v2.61H17a1.31,1.31,0,1,1,0-2.61Z"/><path d="M48.32,36.54A1.31,1.31,0,0,1,47,37.84H27V35.23H47A1.31,1.31,0,0,1,48.32,36.54Z"/><path d="M17,42.84h6v2.61H17a1.31,1.31,0,1,1,0-2.61Z"/><path d="M48.32,44.15A1.31,1.31,0,0,1,47,45.45H27V42.84H47A1.31,1.31,0,0,1,48.32,44.15Z"/><path d="M17,50.45h6v2.62H17a1.31,1.31,0,0,1,0-2.62Z"/><path d="M48.32,51.76A1.31,1.31,0,0,1,47,53.07H27V50.45H47A1.31,1.31,0,0,1,48.32,51.76Z"/><path d="M36.33,20.67A9.89,9.89,0,0,0,38,15a10.73,10.73,0,0,0-.6-3.59l-.16-.45H26.75l-.16.45A10.74,10.74,0,0,0,26,15a9.82,9.82,0,0,0,1.7,5.7,6.35,6.35,0,0,0,1.9,1.8,4.54,4.54,0,0,0,1.58.59l-.51,5.58c-1.53.13-2.61,1.19-2.61,1.59H36c0-.4-1.09-1.46-2.62-1.59l-.5-5.58a4.49,4.49,0,0,0,1.57-.59A6.5,6.5,0,0,0,36.33,20.67Zm-4.41-5.43a12.73,12.73,0,0,1-4.59-.06V15a9.21,9.21,0,0,1,.38-2.69h8.58a9.09,9.09,0,0,1,.38,2.63A31.33,31.33,0,0,0,31.92,15.24Z"/><text x="0" y="79" fill="#000000" font-size="5px" font-weight="bold" font-family="'Helvetica Neue', Helvetica, Arial-Unicode, Arial, Sans-serif">Created by SHAHAREA</text><text x="0" y="84" fill="#000000" font-size="5px" font-weight="bold" font-family="'Helvetica Neue', Helvetica, Arial-Unicode, Arial, Sans-serif">from the Noun Project</text></svg>