<svg xmlns="http://www.w3.org/2000/svg" viewBox="0 0 64 80" x="0px" y="0px"><g><path d="M50,6.5h-.5V3a.48.48,0,0,0-.17-.37.5.5,0,0,0-.39-.13l-36,4-.07,0-.08,0-.09.06-.07,0-.05.09a.16.16,0,0,0,0,.07.45.45,0,0,0,0,.11s0,0,0,.07V60A1.5,1.5,0,0,0,14,61.5H50A1.5,1.5,0,0,0,51.5,60V8A1.5,1.5,0,0,0,50,6.5ZM48.5,3.56V6.5H22ZM50.5,60a.5.5,0,0,1-.5.5H14a.5.5,0,0,1-.5-.5V7.5H50a.5.5,0,0,1,.5.5Zm-5-4a.5.5,0,0,1-.5.5H19a.5.5,0,0,1,0-1H45A.5.5,0,0,1,45.5,56ZM31.9,22.89c.09-1.13-.65-2.29-.18-3.41.37,1.21,1.25,2.11,1.18,3.41s-.82,2.2-1.18,3.42C31.25,25.19,32,24,31.9,22.89Zm-3,0c.08-1.13-.66-2.29-.19-3.41.37,1.21,1.25,2.11,1.19,3.41s-.82,2.2-1.19,3.42C28.22,25.19,29,24,28.87,22.89Zm6.07,0c.08-1.13-.65-2.29-.18-3.41.36,1.21,1.24,2.11,1.18,3.41s-.82,2.2-1.18,3.42C34.29,25.19,35,24,34.94,22.89Zm11.54,8.23H44.71v-1a.51.51,0,0,0-.5-.5H19.92a.5.5,0,0,0-.5.5v2.82a10.9,10.9,0,0,0,6.25,9.58H18.4a.5.5,0,0,0-.5.5v.21A1.81,1.81,0,0,0,19.71,45h24.7a1.81,1.81,0,0,0,1.81-1.81V43a.5.5,0,0,0-.5-.5H38.46a11.78,11.78,0,0,0,4.73-4.31H45a3.54,3.54,0,0,0,3.54-3.53V33.14A2,2,0,0,0,46.48,31.12ZM44.41,44H19.71A.8.8,0,0,1,19,43.5H45.17A.81.81,0,0,1,44.41,44ZM35.79,42.5H28.34c-4.74-1.39-7.92-5.23-7.92-9.58V30.6H43.71v1a10.38,10.38,0,0,1-1.24,5.84A11.29,11.29,0,0,1,35.79,42.5ZM47.5,34.66A2.54,2.54,0,0,1,45,37.19H43.74a10.89,10.89,0,0,0,1-5.07h1.77a1,1,0,0,1,1,1Z"/></g><text x="0" y="79" fill="#000000" font-size="5px" font-weight="bold" font-family="'Helvetica Neue', Helvetica, Arial-Unicode, Arial, Sans-serif">Created by bastian vieri</text><text x="0" y="84" fill="#000000" font-size="5px" font-weight="bold" font-family="'Helvetica Neue', Helvetica, Arial-Unicode, Arial, Sans-serif">from the Noun Project</text></svg>